# xmcd CD database file
#
# Track frame offsets:
#	150
#	20418
#	42036
#	63103
#	79877
#	100137
#	131965
#	148247
#	168287
#	189830
#
# Disc length: 2894 seconds
#
# Revision: 1
# Processed by: cddbd v1.5.1PL2 Copyright (c) Steve Scherf et al.
# Submitted via: CDex 1.40Beta8
#
DISCID=800b4c0a
DTITLE=Richard Clayderman - Mysterious eternity
DYEAR=2002
DGENRE=Easy Listening
TTITLE0=dance avec ta vie
TTITLE1=le chant des algues
TTITLE2=quelques accords puor freiner la guerre
TTITLE3=peur de la nuit
TTITLE4=la response de l'ange
TTITLE5=mysterious eternity
TTITLE6=J'aime les gens qui s'aiment
TTITLE7=express train off my life
TTITLE8=universal prayer
TTITLE9=end of the game
EXTD=YEAR: 2002 ID3G: 98
EXTT0=
EXTT1=
EXTT2=
EXTT3=
EXTT4=
EXTT5=
EXTT6=
EXTT7=
EXTT8=
EXTT9=
PLAYORDER=
